<svg id="Livello_1" data-name="Livello 1" xmlns="http://www.w3.org/2000/svg" xmlns:xlink="http://www.w3.org/1999/xlink" viewBox="0 0 514.79 69.71"><defs><style>.cls-1{fill:none;}.cls-2,.cls-7{fill:#1d1d1b;}.cls-3,.cls-6{fill:#f9c600;}.cls-4{clip-path:url(#clip-path);}.cls-5{fill:#fff;}.cls-5,.cls-6,.cls-7{fill-rule:evenodd;}</style><clipPath id="clip-path"><rect class="cls-1" width="514.79" height="69.71"/></clipPath></defs><polygon class="cls-2" points="343.64 14.11 356.25 14.11 356.25 41.07 373.99 41.07 373.99 51.85 343.64 51.85 343.64 14.11"/><polygon class="cls-2" points="392 14.11 406.13 14.11 413.46 35.15 420.79 14.11 434.7 14.11 419.39 51.85 407.31 51.85 392 14.11"/><polygon class="cls-2" points="436.98 14.11 469.17 14.11 469.17 24.46 449.38 24.46 449.38 28.29 467.82 28.29 467.82 37.4 449.38 37.4 449.38 41.5 469.44 41.5 469.44 51.85 436.98 51.85 436.98 14.11"/><rect class="cls-3" x="377.03" y="41.07" width="12.62" height="10.78"/><rect class="cls-2" x="377.03" y="14.11" width="12.62" height="23.92"/><rect class="cls-3" x="377.03" y="41.07" width="12.62" height="10.78"/><g class="cls-4"><path class="cls-2" d="M118.29,52.69a20.1,20.1,0,0,1-7.46-1.4,18.94,18.94,0,0,1-6.22-4,19.15,19.15,0,0,1-4.28-6.19,19.59,19.59,0,0,1-1.59-8V33a19.65,19.65,0,0,1,1.54-7.81A18.88,18.88,0,0,1,104.53,19a19.63,19.63,0,0,1,6.38-4.12,20.79,20.79,0,0,1,7.87-1.48,21.1,21.1,0,0,1,5.73.73,18.36,18.36,0,0,1,4.74,2A16.86,16.86,0,0,1,133,19.21a20.85,20.85,0,0,1,2.83,4l-10.39,6.09A10.19,10.19,0,0,0,122.79,26a7.21,7.21,0,0,0-7.08-.62,6.66,6.66,0,0,0-2.21,1.77,8.61,8.61,0,0,0-1.43,2.64,9.9,9.9,0,0,0-.51,3.18V33a10.68,10.68,0,0,0,.51,3.37A7.86,7.86,0,0,0,113.53,39a6.68,6.68,0,0,0,2.23,1.72,7.35,7.35,0,0,0,7.16-.7,11.87,11.87,0,0,0,2.81-3.42l10.39,5.87a23.88,23.88,0,0,1-2.8,4,17,17,0,0,1-3.8,3.23,19.24,19.24,0,0,1-5,2.18,22.4,22.4,0,0,1-6.28.81"/><path class="cls-2" d="M158.11,52.69A21.43,21.43,0,0,1,150,51.18,20.29,20.29,0,0,1,143.48,47a19,19,0,0,1-5.89-13.89V33a18.88,18.88,0,0,1,1.58-7.68,19.59,19.59,0,0,1,4.37-6.24,20.59,20.59,0,0,1,6.54-4.21,22.45,22.45,0,0,1,16.24,0A20.44,20.44,0,0,1,172.84,19a19.14,19.14,0,0,1,5.9,13.9V33a18.65,18.65,0,0,1-1.59,7.67A19.52,19.52,0,0,1,172.78,47a20.29,20.29,0,0,1-6.54,4.2,21.2,21.2,0,0,1-8.13,1.54m.11-11.15a7.32,7.32,0,0,0,3.23-.7A7.77,7.77,0,0,0,163.92,39a8,8,0,0,0,1.57-2.67,9.55,9.55,0,0,0,.54-3.17V33a9.2,9.2,0,0,0-.57-3.21,8.89,8.89,0,0,0-1.59-2.72,7.58,7.58,0,0,0-2.48-1.88,7.41,7.41,0,0,0-3.28-.7,7.26,7.26,0,0,0-3.23.7,7.81,7.81,0,0,0-2.48,1.86,8,8,0,0,0-1.56,2.66,9.4,9.4,0,0,0-.54,3.18V33a9.33,9.33,0,0,0,.56,3.2A8.77,8.77,0,0,0,152.45,39a7.61,7.61,0,0,0,2.48,1.89,7.43,7.43,0,0,0,3.29.7"/><path class="cls-2" d="M183.34,14.18h18.42a25,25,0,0,1,8.32,1.16,13.68,13.68,0,0,1,5.25,3.15,11.45,11.45,0,0,1,2.59,3.87,13.73,13.73,0,0,1,.86,5.07v.11a11.94,11.94,0,0,1-2,7,13.81,13.81,0,0,1-5.44,4.52l8.78,12.82H205.75l-7.11-10.77H196V51.88H183.34Zm18,17.93a5.79,5.79,0,0,0,3.56-1,3.16,3.16,0,0,0,1.29-2.69v-.11a3.09,3.09,0,0,0-1.29-2.72,6.11,6.11,0,0,0-3.5-.89H196v7.38Z"/><path class="cls-2" d="M237.22,13.91h12.49l15.89,38H251.92l-2-5.06h-13.2l-1.94,5.06H221.33Zm9.59,24-3.45-9.16-3.45,9.16Z"/><polygon class="cls-2" points="272.62 24.84 261.52 24.84 261.52 14.18 296.32 14.18 296.32 24.84 285.22 24.84 285.22 51.88 272.62 51.88 272.62 24.84"/><path class="cls-2" d="M318.63,52.69a21.34,21.34,0,0,1-8.1-1.51A20.29,20.29,0,0,1,304,47a19,19,0,0,1-5.9-13.89V33a18.73,18.73,0,0,1,1.59-7.68,19.56,19.56,0,0,1,4.36-6.24,20.53,20.53,0,0,1,6.55-4.21,22.45,22.45,0,0,1,16.24,0A20.5,20.5,0,0,1,333.36,19a19,19,0,0,1,5.9,13.9V33a18.65,18.65,0,0,1-1.59,7.67A19.49,19.49,0,0,1,333.31,47a20.34,20.34,0,0,1-6.55,4.2,21.2,21.2,0,0,1-8.13,1.54m.11-11.15a7.32,7.32,0,0,0,3.23-.7A7.81,7.81,0,0,0,324.45,39,8.1,8.1,0,0,0,326,36.31a9.3,9.3,0,0,0,.54-3.17V33a9.2,9.2,0,0,0-.57-3.21,8.51,8.51,0,0,0-1.59-2.72,7.54,7.54,0,0,0-2.47-1.88,7.46,7.46,0,0,0-3.29-.7,7.32,7.32,0,0,0-3.23.7,7.81,7.81,0,0,0-2.48,1.86,8.15,8.15,0,0,0-1.56,2.66,9.4,9.4,0,0,0-.54,3.18V33a9.11,9.11,0,0,0,.57,3.2A8.4,8.4,0,0,0,313,39a7.57,7.57,0,0,0,2.47,1.89,7.46,7.46,0,0,0,3.29.7"/><rect class="cls-3" x="472.66" y="44.11" width="7.81" height="7.74"/><rect class="cls-3" x="483.69" y="28.29" width="7.88" height="23.56"/><polygon class="cls-3" points="499.98 34.95 493.04 34.95 493.04 28.29 514.79 28.29 514.79 34.95 507.85 34.95 507.85 51.85 499.98 51.85 499.98 34.95"/><rect class="cls-3" x="43.81" y="8.17" width="49.61" height="49.61"/><path class="cls-5" d="M36,20.31l-3.83-5.52-6.51-1.31c-6,2.95-5.1,3.06-8.48,8.45l.48,2.36L10.47,22,4.77,24.3,2.22,29.2.94,34.65,2.81,39l3.3,3.78c2.77,1,9.24,3.11,12.08,4a89.14,89.14,0,0,0,10.73,1c4.78-3.93,4.18-4.4,10.58-5.39.38-1.94.85-6.05,1-8L36,20.31"/><path class="cls-6" d="M43.4,36.82,35.62,40.1a9.53,9.53,0,0,0-2.84,1.59A9.73,9.73,0,0,0,31,44.22c-2.43,4.33-4.93,9.41-3.15,14a3.41,3.41,0,0,0,.88,1.4,3.84,3.84,0,0,0,1.86.7,22.48,22.48,0,0,0,13.7-2.27A31.6,31.6,0,0,0,54.93,49,4.24,4.24,0,0,0,56,46.79a4,4,0,0,0-1.07-2.61,18.84,18.84,0,0,0-11-6.9"/><path class="cls-5" d="M88.27,32.87c-.08,8.84-8.87,15.91-19.61,15.8s-19.39-7.35-19.3-16.18S58.23,16.58,69,16.68,88.36,24,88.27,32.87"/><path class="cls-7" d="M35.92,37.06h0c-.06,0,0,0,0,0"/><path class="cls-7" d="M59.21,35.18c-.21-.19.63-.92.44-1.11s-2.83.6-3.43.87a4.15,4.15,0,0,0,.39,2.35A38.22,38.22,0,0,0,66,41.78c5.18,1.93,12.1-.07,13.71-1.22a4.58,4.58,0,0,0,2.41-3.46c-4.85,5.08-17.81,2.76-22.94-1.92"/><path class="cls-7" d="M75.16,27.79l1.78.51-.83.77a2.33,2.33,0,0,0-.85,1.75,4.24,4.24,0,0,0,.31,1.73,1.59,1.59,0,0,0,.84.92,1.42,1.42,0,0,0,.79.12,2.09,2.09,0,0,0,1-.47,4,4,0,0,0,1.21-1.75,5.1,5.1,0,0,0,.27-2.23,15.57,15.57,0,0,0-.56-3.05c-.37-1.36-1-2.86-2.94-2.49a2.46,2.46,0,0,0-1.42,1,2.26,2.26,0,0,0-.19,1.73,6.55,6.55,0,0,0,.58,1.43"/><path class="cls-7" d="M64.77,28.8A4.67,4.67,0,0,0,63.39,31a8,8,0,0,0,.86,2.2,1.6,1.6,0,0,0,1.18.84,1.56,1.56,0,0,0,.64-.07,2.06,2.06,0,0,0,.89-.66,4.57,4.57,0,0,0,.9-3.31,8.11,8.11,0,0,0-1.16-3.85c-.63-1.26-1.79-2.52-3.6-1.77a2.34,2.34,0,0,0-1.33,2.34c.1.78,0,1.92.43,2.42.61.05,2-.36,2.57-.31"/><path class="cls-7" d="M87.61,22.79a18.65,18.65,0,0,0-9.67-7.24,26.42,26.42,0,0,0-2.58-.79c.45-1,1-2.15,1.63-3.33a11.22,11.22,0,0,1,7.4-5.52l1.31-.28c3.47-.52,4.53-2.44,4.13-5.63a28.88,28.88,0,0,0-6.34,1,11.44,11.44,0,0,0-6.21,3.37c-2.18,2.11-4.17,6-5.71,9.68-.67-.08-1.35-.14-2-.18-1.48-3.42-3.36-7.13-5.42-9.14a11.42,11.42,0,0,0-6.19-3.4A44.38,44.38,0,0,0,51.59.29c-.41,3.19.64,5.11,4.11,5.65,1,.23,2,.44,3,.72A7.89,7.89,0,0,1,63,9.71a34.29,34.29,0,0,1,2.49,4.41c-6.86,1.16-11.16,3.21-14,6.42-5.95,6.57-4.7,12.54-4.46,14.52a11.69,11.69,0,0,0-4.19-.3c-.47.08-1,.23-1.67.4-.3-5.72-1.88-12.35-3.57-15.6a13.5,13.5,0,0,0-4.43-5.78C30.53,12,27.94,10.83,24.31,12c-5.21,2.25-6.62,4.66-7.72,9.86a17.38,17.38,0,0,0-5.73-1.18A8.51,8.51,0,0,0,5.48,22.6a11.12,11.12,0,0,0-3,3.59A21.84,21.84,0,0,0,.11,32.28a10.88,10.88,0,0,0,.94,6.33c1.41,2.8,2.76,4.49,4.66,5.67a26.32,26.32,0,0,0,7.77,3.21A57.09,57.09,0,0,0,26.56,49.2h.29c-1.47,5.17-1.68,9.17-.41,13.36a3.6,3.6,0,0,0-.5,2c.32.46.38,1.39.83,1.88,1.15-.2,1.37-1.5,2.13-1.41a22.52,22.52,0,0,0,10.71-1.21c7.68-3.33,8.38-4.07,11.51-6.66A25.84,25.84,0,0,0,56,49a26.2,26.2,0,0,0,18.67,2c6.21-2,10.53-4.65,13.57-9.92a17,17,0,0,0,2.26-8.64,17.54,17.54,0,0,0-2.88-9.64M20.89,16.94c2.22-2.52,6.43-2.83,9.06-1.44,3.62,2.14,6.29,7.37,7.46,11.38a58.53,58.53,0,0,1,1.82,8.87c-1.08.36-2.15.76-3,1.13.16-.07-.23.12-.34.18a15.22,15.22,0,0,0-2,1.33c-.29.23-.55.47-.82.71-1.32-5-7.72-12.33-11.4-14.63-1-.61-2-1.16-3-1.66a12.1,12.1,0,0,1,2.17-5.87m11,23.3c-.37.39-.72.78-1.05,1.19-2.53-2-7.67-5.25-10.66-11.3A30.42,30.42,0,0,1,19,26.2a29,29,0,0,1,4.55,2.94c5.78,4.87,6.6,7.42,7.3,8.62.28.48.7,1.51,1.11,2.48M10.67,43.3A14,14,0,0,1,5,39.09a9.65,9.65,0,0,1-2-8.56,9.44,9.44,0,0,1,6.87-6.92c1.44-.4,3.83.22,6.29,1.26.1,5.16,1.42,6.34,2.68,9.32,3.58,4.92,5.36,5.81,9.17,8.3a9.16,9.16,0,0,0,1.49.8c-.05.08-.12.17-.17.26h0l-.09.15a25.43,25.43,0,0,0-1.75,3.55c-2.16-.74-10.12-1.14-16.84-4M33,59.93c-2-.13-3.68.7-3.93-1.53-.81-2.72-.13-3.62.42-6,.12-.33.26-.68.43-1.05A21.36,21.36,0,0,0,36,59.76a10.62,10.62,0,0,1-3,.17m9.69-2.46a15.36,15.36,0,0,1-9-12.22,13.22,13.22,0,0,1,2.07-2.09,16.57,16.57,0,0,1,1.8-1.25,21.78,21.78,0,0,0,9.08,13.41,40.45,40.45,0,0,1-3.95,2.15m8.11-5.8c-4.22-2.44-7.79-5.58-8.87-11.41l.12,0a17.26,17.26,0,0,1,3.28-.32,10.57,10.57,0,0,1,3.12.77c.15.43.32.87.5,1.31a14.36,14.36,0,0,0,4.31,5.22,16.71,16.71,0,0,1-2.46,4.45M85,39.93c-2.67,4.68-7.44,6-11.3,6.74-5.37.66-9.6-.39-14.88-2.82A13.59,13.59,0,0,1,52.9,38a22.14,22.14,0,0,1-1.34-3.68A11,11,0,0,1,55.7,23.22c5.37-4,11.11-5.15,17.45-4.31A17,17,0,0,1,77.26,20c4.43,1.82,7.15,5.27,8.51,10.58,1,3.87.77,6.24-.8,9.39"/></g></svg>